<?xml version="1.0" encoding="UTF-8" standalone="no"?>
<svg
   width="32"
   height="32"
   viewBox="0 0 32 32"
   fill="none"
   version="1.1"
   id="svg2"
   xmlns="http://www.w3.org/2000/svg"
   xmlns:svg="http://www.w3.org/2000/svg">
  <defs
     id="defs2" />
  <rect
     width="32"
     height="32"
     rx="2"
     fill="#CCE5F3"
     id="rect1" />
  <path
     d="m 25.525407,23.249746 -0.08304,0.08304 0.08304,0.24913 0.249131,0.249131 0.415218,0.249131 0.664348,0.24913 0.332174,0.166087 v 0.166088 l 0.249131,0.24913 0.249131,-0.08304 0.415217,-0.415218 0.332175,-0.249131 0.08304,-0.24913 -0.166087,-0.166088 -0.166087,-0.08304 -0.08304,-0.08304 -0.166087,-0.664348 -0.332174,-0.581305 -0.332174,-0.498261 h -0.249131 l -0.166087,0.166087 -0.249131,-0.08304 -0.249131,0.166088 -0.166086,-0.08304 -0.166087,0.166087 h -0.08304 l -0.166087,-0.249131 -0.166087,-0.166087 h -0.166087 l -0.08304,0.166087 0.08304,0.332175 0.332174,0.332174 0.249131,0.415218 0.166087,0.249131 0.08304,0.24913 -0.166087,-0.08304 -0.166087,-0.08304 -0.249131,-0.08304 z"
     fill="#ffefda"
     id="path4-2"
     style="fill:#cce5f3;fill-opacity:1;stroke-width:0.332174" />
  <path
     d="m 18.793598,20.498679 0.16074,-0.160739 0.160739,-0.08035 h 0.562537 5.786275 0.884015 l 0.241092,0.160739 0.160706,0.241092 v 0.803629 0.482184 h -0.160706 l -0.160739,0.160739 -0.241092,-0.08035 -0.241092,0.241092 -0.160739,-0.401831 -0.241092,-0.160739 -0.16074,0.08039 -0.08035,0.241092 0.723276,1.044721 0.241092,0.401831 -0.08035,-0.08035 H 25.946078 L 25.785339,23.23109 h -0.241092 l -0.08035,0.08035 v 0.160739 0.160739 h -4.500429 -1.044754 -0.723276 -0.241092 l -0.16074,-0.160739 -0.08035,-0.08035 V 22.989985 22.66854 22.266709 21.784525 21.302308 20.820124 Z"
     fill="#ffefda"
     id="path5"
     style="fill:#cce5f3;fill-opacity:1;stroke-width:0.332174" />
  <rect
     x="3.5434592"
     y="7.4991255"
     width="24.913065"
     height="17.001749"
     rx="0.33217418"
     fill="#ffd59d"
     id="rect3-9"
     style="fill:#80bee0;fill-opacity:1;stroke-width:0.396076" />
  <path
     d="m 14.766215,17.470072 -1.138893,1.613404 h 4.745341 l -1.518501,-1.993045 -1.138892,1.613403 z"
     fill="#575350"
     stroke="#575350"
     stroke-width="0.166087"
     stroke-linejoin="round"
     id="path3" />
  <rect
     x="5.9679818"
     y="10.146855"
     width="10.859051"
     height="4.3272347"
     rx="0.13573812"
     stroke="#57534f"
     stroke-width="0.266178"
     stroke-dasharray="1, 1"
     id="rect4-1"
     style="stroke-width:0.516;stroke-dasharray:1.93855288,1.93855288;stroke-dashoffset:0" />
  <path
     d="m 14.965597,21.843872 0.231196,-0.231195 0.231197,-0.115562 h 0.809115 8.322583 1.271506 l 0.34677,0.231195 0.23115,0.346772 v 1.155885 0.693541 l 0.251629,0.263334 -0.713974,-0.03214 -0.346771,-0.115562 -0.34677,0.346771 -0.231197,-0.577966 -0.34677,-0.231197 -0.231195,0.115619 -0.115562,0.346771 1.04031,1.502654 0.346771,0.577968 -0.115577,-0.115562 h -0.34677 l -0.231195,-0.231196 h -0.346771 l -0.115562,0.115562 v 0.231198 0.231195 h -6.473109 -1.502704 -1.04031 -0.346771 l -0.231196,-0.23119 -0.115562,-0.115562 v -0.57799 -0.462345 -0.577966 -0.69354 -0.693589 -0.693541 z"
     fill="#ffefda"
     id="path5-0"
     style="fill:#cce5f3;fill-opacity:1;stroke-width:0.477776" />
  <path
     d="m 24.668904,25.764255 -0.118417,0.118417 0.118417,0.35526 0.355259,0.35526 0.592101,0.355259 0.947359,0.355261 0.473678,0.23684 v 0.23684 l 0.355262,0.355259 0.355258,-0.118418 0.5921,-0.5921 0.47368,-0.355258 0.118417,-0.355262 -0.23684,-0.23684 -0.23684,-0.118417 -0.118417,-0.118417 -0.23684,-0.947357 -0.47368,-0.828941 -0.473678,-0.710519 h -0.355262 l -0.236838,0.23684 -0.35526,-0.118417 -0.355259,0.23684 -0.23684,-0.118417 -0.23684,0.23684 h -0.118417 l -0.236844,-0.355276 -0.236839,-0.23684 h -0.23684 l -0.118417,0.23684 0.118417,0.47368 0.473679,0.47368 0.355261,0.592099 0.23684,0.35526 0.118417,0.355258 -0.236838,-0.118417 -0.23684,-0.118417 -0.35526,-0.118417 z"
     fill="#ffefda"
     id="path4"
     style="fill:#cce5f3;fill-opacity:1;stroke-width:0.47368" />
  <path
     d="m 24.098796,26.242737 c 0.05378,0 0.09219,0.04779 0.09219,0.0956 0,0.0478 -0.03842,0.09555 -0.0845,0.09555 h -0.0077 -0.514747 c -0.05378,0 -0.09218,-0.04775 -0.09218,-0.09555 0,-0.0478 0.03842,-0.0956 0.08451,-0.0956 h 0.0077 z m 0.914216,-2.52475 0.345694,0.50972 c 0.02305,-0.07171 0.06918,-0.135391 0.138317,-0.175217 0.138275,-0.09555 0.338012,-0.08764 0.460925,0 0.02306,-0.07171 0.06914,-0.143351 0.130651,-0.183185 0.14596,-0.103513 0.384103,-0.07171 0.507017,0.03984 0.02305,-0.07171 0.06914,-0.127467 0.130594,-0.175218 0.161372,-0.111537 0.430245,-0.06373 0.537794,0.07962 v 0.008 l 0.0461,0.0478 c 0.222829,0.254883 0.4072,0.517688 0.560841,0.780538 l 0.03072,0.05578 0.04608,0.08758 0.0461,0.08764 0.03842,0.07962 c 0.184416,0.350437 0.26892,0.597354 0.384151,1.067288 0.02304,0.111479 0.05378,0.215004 0.09218,0.310604 0.107553,-0.01593 0.22278,0.01593 0.299602,0.103513 l 0.0077,0.01593 0.169053,0.215051 c 0.107553,0.143351 0.09218,0.342469 -0.03842,0.461968 l -0.01536,0.008 -1.306049,1.09114 c -0.138274,0.11148 -0.330377,0.09555 -0.445608,-0.03983 l -0.0077,-0.01593 -0.169006,-0.215051 c -0.07682,-0.09555 -0.09218,-0.215051 -0.05378,-0.31857 h -0.0077 -0.0077 c -0.08451,-0.0478 -0.184418,-0.07966 -0.291967,-0.10357 l -0.03842,-0.0079 h -0.0077 c -0.883486,-0.238951 -2.051258,-1.011522 -2.158808,-1.377891 -0.09987,-0.326537 0.138274,-0.509721 0.414879,-0.469936 0.08451,0.01593 0.29192,0.08764 0.614616,0.238952 l 0.107553,0.0478 -0.01536,-0.01593 c -0.122914,-0.191152 -0.238192,-0.350436 -0.33806,-0.509722 l -0.199733,-0.302682 -0.261191,-0.382303 c -0.115277,-0.167251 -0.245875,-0.358403 -0.384151,-0.573453 -0.130595,-0.199118 -0.09218,-0.469888 0.0845,-0.597353 0.176687,-0.119445 0.422561,-0.06368 0.553157,0.127468 z m 3.472539,2.819467 -0.0077,0.008 -1.313731,1.099108 c -0.05378,0.0478 -0.06914,0.127411 -0.02305,0.183185 l 0.0077,0.008 0.169006,0.21505 c 0.0461,0.05572 0.122914,0.07165 0.176735,0.0239 l 0.0077,-0.008 1.313683,-1.099107 c 0.05378,-0.0478 0.06918,-0.127467 0.02306,-0.183184 l -0.0077,-0.008 -0.161323,-0.215051 c -0.0461,-0.05577 -0.122914,-0.06373 -0.184371,-0.0239 z M 24.567404,23.75782 c -0.09218,0.06368 -0.107554,0.207037 -0.03842,0.318569 l 0.376469,0.549554 0.215098,0.326536 c 0.05378,0.07966 0.09987,0.151318 0.14596,0.223018 l 0.06914,0.10357 c 0.176736,0.270771 0.384152,0.557521 0.614614,0.868123 0.06146,0.07962 -0.02305,0.191152 -0.115234,0.15132 l -0.222781,-0.103514 -0.145958,-0.06373 c -0.353424,-0.159284 -0.568522,-0.238951 -0.637661,-0.254884 -0.153689,-0.0239 -0.245873,0.05578 -0.199781,0.215051 0.08454,0.278785 1.175453,1.003555 1.997484,1.242506 l 0.02304,0.008 0.03072,0.008 c 0.115276,0.02385 0.215145,0.06368 0.315012,0.111479 l 0.03072,0.01593 c 0.0077,0.008 0.02304,0.01593 0.03072,0.0239 l 1.283014,-1.075291 c -0.03842,-0.111479 -0.07682,-0.22297 -0.107554,-0.350435 l -0.02304,-0.09555 c -0.122951,-0.485874 -0.21514,-0.708844 -0.476331,-1.162846 -0.153641,-0.270816 -0.338059,-0.541587 -0.568521,-0.804437 l -0.0461,-0.07962 -0.0077,-0.008 c -0.03842,-0.05578 -0.199735,-0.08764 -0.276555,-0.03186 -0.07682,0.04779 -0.09992,0.191152 -0.06146,0.262804 l 0.0077,0.008 0.192051,0.286751 c 0.03072,0.0478 0.01536,0.103513 -0.02304,0.135391 -0.03842,0.03186 -0.09987,0.0239 -0.130594,-0.01593 l -0.0077,-0.008 -0.122957,-0.191151 -0.01536,-0.008 -0.199734,-0.302637 c -0.03842,-0.05578 -0.199734,-0.08764 -0.284237,-0.03186 -0.06914,0.0478 -0.09218,0.19115 -0.05378,0.254883 l 0.0077,0.008 0.307284,0.469888 0.0461,0.06373 c 0.03072,0.0478 0.01536,0.103514 -0.02305,0.135377 -0.03842,0.03186 -0.09987,0.02391 -0.130595,-0.01593 l -0.0077,-0.008 -0.460973,-0.708839 c -0.03842,-0.05578 -0.192053,-0.07962 -0.276555,-0.01593 -0.07682,0.05578 -0.09987,0.183184 -0.06146,0.246917 l 0.0077,0.008 0.507017,0.780537 v 0.008 l 0.0077,0.008 v 0.008 0.008 c 0,0.0079 0,0.0079 0,0.01589 v 0.008 0.008 0.008 0.008 l -0.0077,0.008 -0.0077,0.008 -0.0077,0.008 v 0.01593 l -0.0077,0.008 -0.0077,0.008 c 0,0 -0.0077,0.008 -0.01536,0.008 h -0.0077 -0.0077 -0.0077 -0.01536 -0.0077 -0.0077 -0.0077 c -0.0077,0 -0.0077,0 -0.01536,-0.008 l -0.01536,-0.008 -0.0077,-0.008 v 0.008 l -0.0077,-0.008 -0.0077,-0.008 -0.0077,-0.008 -1.014083,-1.505309 c -0.07682,-0.111479 -0.215145,-0.151319 -0.299647,-0.08758 z m 1.1985,-2.333647 c 0.384151,0 0.699118,0.31857 0.706798,0.716804 v 0.0239 1.123007 c 0,0.05576 -0.0461,0.0956 -0.09218,0.0956 -0.0461,0 -0.09218,-0.03983 -0.09218,-0.08764 v -0.008 -1.130974 c 0,-0.286702 -0.222828,-0.525654 -0.499383,-0.53362 h -0.01536 l -10.229027,0.03172 c -0.276555,0 -0.507065,0.230984 -0.514747,0.517735 v 0.01593 3.544238 c 0,0.286704 0.222828,0.525654 0.499383,0.533621 h 0.01536 l 7.70148,-0.03176 c 0.05378,0 0.09218,0.04779 0.09218,0.0956 0,0.0478 -0.03842,0.09555 -0.0845,0.09555 h -0.0077 l -7.709161,0.03176 c -0.384104,0 -0.699117,-0.318568 -0.706799,-0.716804 v -0.0239 -3.528305 c 0,-0.398236 0.307284,-0.72482 0.691435,-0.732786 h 0.02304 z"
     fill="#57534f"
     id="path6"
     style="stroke-width:0.774;stroke-dasharray:none" />
</svg>
