<?xml version="1.0" encoding="UTF-8" standalone="no"?>
<svg
   width="32"
   height="32"
   viewBox="0 0 32 32"
   fill="none"
   version="1.1"
   id="svg2"
   xmlns="http://www.w3.org/2000/svg"
   xmlns:svg="http://www.w3.org/2000/svg">
  <defs
     id="defs2" />
  <rect
     width="32"
     height="32"
     rx="2"
     fill="#CCE5F3"
     id="rect1" />
  <g
     id="g2"
     transform="translate(-0.05437827,-0.1459384)">
    <rect
       x="5.6370463"
       y="8.2022676"
       width="7.0793114"
       height="7.1298504"
       rx="0.60679758"
       fill="#fff5e9"
       id="rect2-6"
       style="fill:#cce5f3;fill-opacity:1;stroke-width:0.37161" />
    <rect
       x="5.6370463"
       y="8.2022676"
       width="7.0793114"
       height="7.1298504"
       rx="0.60679758"
       stroke="#57534f"
       stroke-width="0.404531"
       id="rect3" />
    <rect
       x="7.7108874"
       y="10.627385"
       width="2.8281386"
       height="2.4372685"
       fill="#57534f"
       id="rect4"
       style="stroke-width:0.37161" />
    <path
       d="m 7.8784847,13.511148 c -0.10197,0 -0.189298,-0.03798 -0.261985,-0.113972 -0.07269,-0.07595 -0.108956,-0.167188 -0.108844,-0.273691 v -2.713716 c 0,-0.106615 0.03635,-0.197919 0.10903,-0.273914 0.07268,-0.076 0.159941,-0.113898 0.261799,-0.113786 h 2.5957313 c 0.101969,0 0.189297,0.03802 0.261984,0.113972 0.07269,0.07599 0.108956,0.167225 0.108845,0.273728 v 2.713716 c 0,0.106615 -0.03635,0.197919 -0.109031,0.273914 -0.07269,0.07595 -0.15994,0.113898 -0.261798,0.113749 z m 0.185396,-0.775326 H 10.28882 L 9.5935377,11.766627 9.0372747,12.54199 8.6201057,11.960459 Z"
       fill="#ffd59d"
       id="path4"
       style="fill:#80bee0;fill-opacity:1;stroke-width:0.37161" />
    <rect
       x="14.335014"
       y="8.2022676"
       width="12.135952"
       height="7.1298504"
       rx="0.60679758"
       fill="#fff5e9"
       id="rect5"
       style="fill:#cce5f3;fill-opacity:1;stroke-width:0.37161" />
    <rect
       x="14.335014"
       y="8.2022676"
       width="12.135952"
       height="7.1298504"
       rx="0.60679758"
       stroke="#57534f"
       stroke-width="0.404531"
       id="rect6" />
    <rect
       x="18.93755"
       y="10.627385"
       width="2.8281386"
       height="2.4372685"
       fill="#57534f"
       id="rect7"
       style="stroke-width:0.37161" />
    <path
       d="m 19.105146,13.511148 c -0.10197,0 -0.189298,-0.03798 -0.261985,-0.113972 -0.07269,-0.07595 -0.108956,-0.167188 -0.108844,-0.273691 v -2.713716 c 0,-0.106615 0.03634,-0.197919 0.10903,-0.273914 0.07269,-0.076 0.159941,-0.113898 0.261799,-0.113786 h 2.595767 c 0.10197,0 0.189298,0.03802 0.261985,0.113972 0.07265,0.07599 0.108956,0.167225 0.108807,0.273728 v 2.713716 c 0,0.106615 -0.03635,0.197919 -0.108992,0.273914 -0.07269,0.07595 -0.159979,0.113898 -0.2618,0.113749 z m 0.185433,-0.775326 h 2.224901 l -0.695281,-0.969195 -0.556225,0.775363 -0.41717,-0.581531 z"
       fill="#ffd59d"
       id="path7"
       style="fill:#80bee0;fill-opacity:1;stroke-width:0.37161" />
    <rect
       x="5.6370463"
       y="16.959759"
       width="12.135952"
       height="7.1298504"
       rx="0.60679758"
       fill="#fff5e9"
       id="rect8"
       style="fill:#cce5f3;fill-opacity:1;stroke-width:0.37161" />
    <rect
       x="5.6370463"
       y="16.959759"
       width="12.135952"
       height="7.1298504"
       rx="0.60679758"
       stroke="#57534f"
       stroke-width="0.404531"
       id="rect9" />
    <rect
       x="10.239582"
       y="19.387817"
       width="2.8281386"
       height="2.4372685"
       fill="#57534f"
       id="rect10"
       style="stroke-width:0.37161" />
    <path
       d="m 10.407177,22.268686 c -0.102007,0 -0.189335,-0.03802 -0.261985,-0.11401 -0.07269,-0.07595 -0.108956,-0.167187 -0.108844,-0.27369 V 19.16727 c 0,-0.106615 0.03634,-0.197919 0.10903,-0.273914 0.07265,-0.07595 0.159941,-0.113898 0.261799,-0.113787 h 2.59573 c 0.10197,0 0.189298,0.03802 0.261985,0.113973 0.07269,0.076 0.108956,0.167225 0.108845,0.273728 v 2.713716 c 0,0.106615 -0.03635,0.197919 -0.109031,0.273914 -0.07269,0.07595 -0.15994,0.113898 -0.261799,0.113786 z m 0.185396,-0.775363 h 2.224939 l -0.69532,-0.969195 -0.556225,0.775364 -0.417169,-0.581533 z"
       fill="#ffd59d"
       id="path10"
       style="fill:#80bee0;fill-opacity:1;stroke-width:0.37161" />
    <rect
       x="19.392399"
       y="16.959759"
       width="7.0793114"
       height="7.1298504"
       rx="0.60679758"
       fill="#fff5e9"
       id="rect11"
       style="fill:#cce5f3;fill-opacity:1;stroke-width:0.37161" />
    <rect
       x="19.392399"
       y="16.959759"
       width="7.0793114"
       height="7.1298504"
       rx="0.60679758"
       stroke="#57534f"
       stroke-width="0.404531"
       id="rect12" />
    <rect
       x="21.463345"
       y="19.387817"
       width="2.8281386"
       height="2.4372685"
       fill="#57534f"
       id="rect13"
       style="stroke-width:0.37161" />
    <path
       d="m 21.633838,22.268686 c -0.10197,0 -0.189298,-0.03802 -0.261985,-0.11401 -0.07269,-0.07595 -0.108956,-0.167187 -0.108844,-0.27369 V 19.16727 c 0,-0.106615 0.03635,-0.197919 0.109029,-0.273914 0.07269,-0.07595 0.159942,-0.113898 0.2618,-0.113787 h 2.59573 c 0.102007,0 0.189335,0.03802 0.261985,0.113973 0.07268,0.076 0.108956,0.167225 0.108844,0.273728 v 2.713716 c 0,0.106615 -0.03635,0.197919 -0.10903,0.273914 -0.07265,0.07595 -0.159941,0.113898 -0.261799,0.113786 z m 0.185396,-0.775363 h 2.224938 l -0.695281,-0.969195 -0.556226,0.775364 -0.417169,-0.581533 z"
       fill="#ffd59d"
       id="path13"
       style="fill:#80bee0;fill-opacity:1;stroke-width:0.37161" />
  </g>
</svg>
